<svg width="68" height="21" viewBox="0 0 68 21" fill="none" xmlns="http://www.w3.org/2000/svg">
<path d="M31.834 10.196H38.116V12.176H31.834V10.196ZM32.032 17H29.692V4.4H38.89V6.362H32.032V17ZM38.826 17L44.496 4.4H46.8L52.488 17H50.04L45.162 5.642H46.098L41.238 17H38.826ZM41.436 14.084L42.066 12.248H48.87L49.5 14.084H41.436ZM59.8187 17.18C58.8347 17.18 57.9287 17.018 57.1007 16.694C56.2727 16.37 55.5527 15.92 54.9407 15.344C54.3287 14.756 53.8547 14.072 53.5187 13.292C53.1827 12.5 53.0147 11.636 53.0147 10.7C53.0147 9.764 53.1827 8.906 53.5187 8.126C53.8547 7.334 54.3287 6.65 54.9407 6.074C55.5527 5.486 56.2727 5.03 57.1007 4.706C57.9287 4.382 58.8287 4.22 59.8007 4.22C60.7847 4.22 61.6847 4.382 62.5007 4.706C63.3287 5.03 64.0487 5.48 64.6607 6.056C65.2727 6.632 65.7467 7.316 66.0827 8.108C66.4187 8.9 66.5867 9.764 66.5867 10.7C66.5867 11.636 66.4187 12.5 66.0827 13.292C65.7467 14.084 65.2727 14.768 64.6607 15.344C64.0487 15.92 63.3287 16.37 62.5007 16.694C61.6847 17.018 60.7907 17.18 59.8187 17.18ZM63.9227 19.754C63.4787 19.754 63.0467 19.7 62.6267 19.592C62.2187 19.496 61.8107 19.328 61.4027 19.088C61.0067 18.86 60.5927 18.554 60.1607 18.17C59.7287 17.798 59.2547 17.336 58.7387 16.784L61.2227 16.136C61.5587 16.58 61.8767 16.934 62.1767 17.198C62.4887 17.474 62.7887 17.672 63.0767 17.792C63.3647 17.912 63.6647 17.972 63.9767 17.972C64.8047 17.972 65.5247 17.636 66.1367 16.964L67.2167 18.26C66.3767 19.256 65.2787 19.754 63.9227 19.754ZM59.8007 15.128C60.4367 15.128 61.0247 15.02 61.5647 14.804C62.1047 14.588 62.5727 14.282 62.9687 13.886C63.3647 13.478 63.6707 13.004 63.8867 12.464C64.1147 11.924 64.2287 11.336 64.2287 10.7C64.2287 10.052 64.1147 9.464 63.8867 8.936C63.6707 8.396 63.3647 7.928 62.9687 7.532C62.5727 7.124 62.1047 6.812 61.5647 6.596C61.0247 6.38 60.4367 6.272 59.8007 6.272C59.1647 6.272 58.5767 6.38 58.0367 6.596C57.4967 6.812 57.0287 7.124 56.6327 7.532C56.2367 7.928 55.9247 8.396 55.6967 8.936C55.4807 9.464 55.3727 10.052 55.3727 10.7C55.3727 11.336 55.4807 11.924 55.6967 12.464C55.9247 13.004 56.2367 13.478 56.6327 13.886C57.0287 14.282 57.4967 14.588 58.0367 14.804C58.5767 15.02 59.1647 15.128 59.8007 15.128Z" fill="#1C1B2F"/>
<circle cx="10" cy="11" r="10" fill="#1C1B2F"/>
<path d="M9.27 13.17C9.27 12.63 9.39 12.185 9.63 11.835C9.88 11.475 10.24 11.085 10.71 10.665C11.07 10.345 11.335 10.07 11.505 9.84C11.685 9.6 11.775 9.33 11.775 9.03C11.775 8.61 11.605 8.27 11.265 8.01C10.925 7.75 10.47 7.62 9.9 7.62C8.82 7.62 8.005 8.005 7.455 8.775L6 7.83C6.43 7.24 6.985 6.79 7.665 6.48C8.345 6.16 9.145 6 10.065 6C11.185 6 12.075 6.245 12.735 6.735C13.405 7.215 13.74 7.88 13.74 8.73C13.74 9.14 13.67 9.5 13.53 9.81C13.4 10.12 13.24 10.385 13.05 10.605C12.86 10.815 12.61 11.06 12.3 11.34C11.92 11.68 11.635 11.98 11.445 12.24C11.265 12.5 11.175 12.81 11.175 13.17H9.27ZM10.23 16.755C9.88 16.755 9.59 16.645 9.36 16.425C9.14 16.195 9.03 15.915 9.03 15.585C9.03 15.255 9.14 14.98 9.36 14.76C9.59 14.54 9.88 14.43 10.23 14.43C10.57 14.43 10.85 14.54 11.07 14.76C11.3 14.98 11.415 15.255 11.415 15.585C11.415 15.915 11.3 16.195 11.07 16.425C10.85 16.645 10.57 16.755 10.23 16.755Z" fill="white"/>
</svg>
